<svg width="308" height="308" viewBox="0 0 308 308" fill="none" xmlns="http://www.w3.org/2000/svg">
<path d="M308 154C308 239.052 239.052 308 154 308C68.9481 308 0 239.052 0 154C0 68.9481 68.9481 0 154 0C239.052 0 308 68.9481 308 154ZM31.186 154C31.186 221.828 86.1717 276.814 154 276.814C221.828 276.814 276.814 221.828 276.814 154C276.814 86.1717 221.828 31.186 154 31.186C86.1717 31.186 31.186 86.1717 31.186 154Z" fill="#C4C4C4"/>
<path d="M23.1986 227.423C21.2722 228.505 20.5826 230.946 21.7136 232.844C31.3728 249.05 43.9341 263.354 58.7799 275.034C74.6742 287.538 92.8759 296.789 112.346 302.26C131.815 307.73 152.172 309.311 172.253 306.914C191.009 304.676 209.182 299.007 225.868 290.202C227.822 289.171 228.505 286.728 227.423 284.801L216.074 264.583C214.993 262.657 212.557 261.978 210.597 262.996C197.487 269.803 183.246 274.195 168.557 275.948C152.542 277.86 136.308 276.598 120.781 272.236C105.254 267.874 90.7382 260.496 78.0626 250.523C66.4357 241.376 56.5658 230.211 48.9195 217.572C47.776 215.682 45.3434 214.993 43.417 216.074L23.1986 227.423Z" fill="#FEC229"/>
<path d="M209.61 293.311C210.429 295.363 212.758 296.367 214.788 295.495C234.379 287.078 252.023 274.679 266.591 259.068C282.068 242.483 293.69 222.682 300.626 201.082C307.562 179.483 309.64 156.617 306.712 134.121C303.956 112.948 296.829 92.5946 285.8 74.3459C284.657 72.4552 282.179 71.9155 280.318 73.1068L260.793 85.6108C258.932 86.8021 258.396 89.2729 259.526 91.1711C268.085 105.545 273.623 121.53 275.786 138.147C278.122 156.087 276.465 174.322 270.933 191.548C265.402 208.773 256.134 224.564 243.79 237.791C232.357 250.043 218.548 259.814 203.221 266.519C201.197 267.404 200.195 269.726 201.014 271.777L209.61 293.311Z" fill="#00BDB2"/>
<path d="M297.61 110.685C299.725 110.047 300.927 107.813 300.235 105.715C289.784 74.0643 269.343 46.6546 241.988 27.6113C240.175 26.3491 237.691 26.8644 236.476 28.7096L223.728 48.0762C222.513 49.9214 223.029 52.3969 224.833 53.671C246.096 68.6817 262.042 90.064 270.365 114.724C271.071 116.817 273.296 118.018 275.412 117.38L297.61 110.685Z" fill="#0057BD"/>
<path d="M252.113 40.5371C253.558 38.866 253.378 36.3356 251.67 34.9346C235.525 21.6906 216.843 11.8593 196.755 6.05405C175.385 -0.121655 152.931 -1.59456 130.938 1.73666C108.944 5.06788 87.9333 13.1242 69.3508 25.3512C51.8829 36.8449 36.9505 51.7675 25.4515 69.1985C24.235 71.0426 24.8124 73.5127 26.6875 74.6809L46.3666 86.9416C48.2416 88.1097 50.7032 87.5326 51.9318 85.6966C61.0406 72.085 72.7882 60.4209 86.4928 51.4035C101.312 41.6525 118.068 35.2276 135.608 32.571C153.148 29.9144 171.055 31.089 188.097 36.0141C203.857 40.5687 218.532 48.2307 231.263 58.5344C232.98 59.9242 235.502 59.7465 236.947 58.0754L252.113 40.5371Z" fill="#BD5B00"/>
<path d="M85.8535 174H95.9335V171.72H92.4775V156.336H90.3895C89.3815 156.96 88.2055 157.368 86.5495 157.68V159.432H89.7175V171.72H85.8535V174ZM101.373 178.8C103.845 177.864 105.309 175.92 105.309 173.4C105.309 171.552 104.517 170.424 103.173 170.424C102.117 170.424 101.253 171.12 101.253 172.2C101.253 173.352 102.117 173.976 103.101 173.976C103.197 173.976 103.269 173.976 103.365 173.952C103.341 175.368 102.381 176.568 100.749 177.24L101.373 178.8ZM113.257 174H116.089C116.377 167.088 117.025 163.2 121.177 158.016V156.336H109.801V158.664H118.105C114.697 163.416 113.569 167.544 113.257 174ZM130.745 174.312C133.985 174.312 136.649 172.44 136.649 169.248C136.649 166.872 135.041 165.336 133.001 164.832V164.712C134.873 164.016 136.049 162.6 136.049 160.56C136.049 157.632 133.817 156 130.649 156C128.609 156 126.977 156.888 125.585 158.136L127.025 159.864C128.033 158.88 129.185 158.208 130.553 158.184C132.233 158.208 133.265 159.192 133.265 160.752C133.265 162.528 132.113 163.848 128.633 163.848V165.888C132.617 165.888 133.865 167.16 133.865 169.128C133.865 170.952 132.497 172.056 130.505 172.056C128.681 172.056 127.361 171.168 126.329 170.112L124.985 171.888C126.161 173.208 127.961 174.312 130.745 174.312ZM147.344 172.2C145.448 172.2 144.176 170.544 143.888 167.04C144.944 165.528 146.144 164.976 147.176 164.976C149.072 164.976 150.08 166.248 150.08 168.528C150.08 170.808 148.88 172.2 147.344 172.2ZM152.36 157.896C151.352 156.84 149.912 156 147.944 156C144.464 156 141.272 158.712 141.272 165.504C141.272 171.504 144.008 174.312 147.368 174.312C150.248 174.312 152.648 172.032 152.648 168.528C152.648 164.784 150.656 162.96 147.68 162.96C146.408 162.96 144.872 163.728 143.84 165C143.96 159.96 145.832 158.256 148.088 158.256C149.12 158.256 150.2 158.808 150.848 159.576L152.36 157.896ZM157.584 178.8C160.056 177.864 161.52 175.92 161.52 173.4C161.52 171.552 160.728 170.424 159.384 170.424C158.328 170.424 157.464 171.12 157.464 172.2C157.464 173.352 158.328 173.976 159.312 173.976C159.408 173.976 159.48 173.976 159.576 173.952C159.552 175.368 158.592 176.568 156.96 177.24L157.584 178.8ZM171.268 174.312C174.364 174.312 177.22 172.104 177.22 168.192C177.22 164.328 174.796 162.576 171.844 162.576C170.884 162.576 170.164 162.816 169.42 163.2L169.828 158.664H176.38V156.336H167.428L166.9 164.712L168.244 165.6C169.276 164.928 169.948 164.592 171.076 164.592C173.092 164.592 174.436 165.936 174.436 168.288C174.436 170.64 172.924 172.056 170.932 172.056C169.084 172.056 167.812 171.168 166.804 170.16L165.484 171.96C166.732 173.184 168.484 174.312 171.268 174.312ZM187.364 174.312C190.82 174.312 193.076 171.24 193.076 165.096C193.076 159 190.82 156 187.364 156C183.884 156 181.652 158.976 181.652 165.096C181.652 171.24 183.884 174.312 187.364 174.312ZM187.364 172.128C185.564 172.128 184.292 170.208 184.292 165.096C184.292 160.032 185.564 158.184 187.364 158.184C189.164 158.184 190.436 160.032 190.436 165.096C190.436 170.208 189.164 172.128 187.364 172.128ZM203.051 174.312C206.507 174.312 208.763 171.24 208.763 165.096C208.763 159 206.507 156 203.051 156C199.571 156 197.339 158.976 197.339 165.096C197.339 171.24 199.571 174.312 203.051 174.312ZM203.051 172.128C201.251 172.128 199.979 170.208 199.979 165.096C199.979 160.032 201.251 158.184 203.051 158.184C204.851 158.184 206.123 160.032 206.123 165.096C206.123 170.208 204.851 172.128 203.051 172.128ZM219.165 169.856V170.864H221.643V172.04H223.085V162.422H221.643V169.856H219.165ZM216.645 163.976C217.681 163.976 218.395 164.424 218.395 165.138C218.395 165.852 217.681 166.3 216.645 166.3C215.595 166.3 214.881 165.852 214.881 165.138C214.881 164.424 215.595 163.976 216.645 163.976ZM216.645 167.364C218.493 167.364 219.767 166.482 219.767 165.138C219.767 163.794 218.493 162.912 216.645 162.912C214.783 162.912 213.509 163.794 213.509 165.138C213.509 166.482 214.783 167.364 216.645 167.364ZM216.071 171.634H217.513V169.198C218.591 169.142 219.697 169.016 220.761 168.834L220.649 167.798C217.975 168.134 214.867 168.162 212.543 168.176L212.725 169.352C213.719 169.352 214.867 169.338 216.071 169.282V171.634ZM215.693 173.664V171.102H214.251V174.84H223.379V173.664H215.693Z" fill="black"/>
</svg>
