<svg width="345" height="198" viewBox="0 0 345 198" fill="none" xmlns="http://www.w3.org/2000/svg">
<path d="M6.65411 11.241V12H2.34211V11.241H4.04711V5.367L2.68311 6.225L2.26511 5.532L4.30011 4.245H4.94911V11.241H6.65411ZM10.8078 12.088C9.92048 12.088 9.24581 11.7507 8.78381 11.076C8.32181 10.4013 8.09081 9.41867 8.09081 8.128C8.09081 6.83 8.32181 5.84367 8.78381 5.169C9.24581 4.49433 9.92048 4.157 10.8078 4.157C11.6951 4.157 12.3698 4.49433 12.8318 5.169C13.2938 5.83633 13.5248 6.819 13.5248 8.117C13.5248 9.415 13.2938 10.4013 12.8318 11.076C12.3698 11.7507 11.6951 12.088 10.8078 12.088ZM10.8078 11.329C11.4238 11.329 11.8785 11.0687 12.1718 10.548C12.4651 10.0273 12.6118 9.217 12.6118 8.117C12.6118 7.00967 12.4651 6.203 12.1718 5.697C11.8858 5.18367 11.4311 4.927 10.8078 4.927C10.1918 4.927 9.73715 5.18367 9.44381 5.697C9.15048 6.21033 9.00381 7.017 9.00381 8.117C9.00381 9.217 9.15048 10.0273 9.44381 10.548C9.73715 11.0687 10.1918 11.329 10.8078 11.329ZM17.4035 12.088C16.5162 12.088 15.8415 11.7507 15.3795 11.076C14.9175 10.4013 14.6865 9.41867 14.6865 8.128C14.6865 6.83 14.9175 5.84367 15.3795 5.169C15.8415 4.49433 16.5162 4.157 17.4035 4.157C18.2908 4.157 18.9655 4.49433 19.4275 5.169C19.8895 5.83633 20.1205 6.819 20.1205 8.117C20.1205 9.415 19.8895 10.4013 19.4275 11.076C18.9655 11.7507 18.2908 12.088 17.4035 12.088ZM17.4035 11.329C18.0195 11.329 18.4742 11.0687 18.7675 10.548C19.0608 10.0273 19.2075 9.217 19.2075 8.117C19.2075 7.00967 19.0608 6.203 18.7675 5.697C18.4815 5.18367 18.0268 4.927 17.4035 4.927C16.7875 4.927 16.3328 5.18367 16.0395 5.697C15.7462 6.21033 15.5995 7.017 15.5995 8.117C15.5995 9.217 15.7462 10.0273 16.0395 10.548C16.3328 11.0687 16.7875 11.329 17.4035 11.329ZM22.5142 10.878V11.67C22.5142 11.978 22.4629 12.2567 22.3602 12.506C22.2649 12.7627 22.0962 13.012 21.8542 13.254L21.4362 12.935C21.7222 12.6197 21.8836 12.308 21.9202 12H21.3922V10.878H22.5142ZM26.5129 12.088C25.6256 12.088 24.9509 11.7507 24.4889 11.076C24.0269 10.4013 23.7959 9.41867 23.7959 8.128C23.7959 6.83 24.0269 5.84367 24.4889 5.169C24.9509 4.49433 25.6256 4.157 26.5129 4.157C27.4002 4.157 28.0749 4.49433 28.5369 5.169C28.9989 5.83633 29.2299 6.819 29.2299 8.117C29.2299 9.415 28.9989 10.4013 28.5369 11.076C28.0749 11.7507 27.4002 12.088 26.5129 12.088ZM26.5129 11.329C27.1289 11.329 27.5836 11.0687 27.8769 10.548C28.1702 10.0273 28.3169 9.217 28.3169 8.117C28.3169 7.00967 28.1702 6.203 27.8769 5.697C27.5909 5.18367 27.1362 4.927 26.5129 4.927C25.8969 4.927 25.4422 5.18367 25.1489 5.697C24.8556 6.21033 24.7089 7.017 24.7089 8.117C24.7089 9.217 24.8556 10.0273 25.1489 10.548C25.4422 11.0687 25.8969 11.329 26.5129 11.329ZM33.1086 12.088C32.2213 12.088 31.5466 11.7507 31.0846 11.076C30.6226 10.4013 30.3916 9.41867 30.3916 8.128C30.3916 6.83 30.6226 5.84367 31.0846 5.169C31.5466 4.49433 32.2213 4.157 33.1086 4.157C33.9959 4.157 34.6706 4.49433 35.1326 5.169C35.5946 5.83633 35.8256 6.819 35.8256 8.117C35.8256 9.415 35.5946 10.4013 35.1326 11.076C34.6706 11.7507 33.9959 12.088 33.1086 12.088ZM33.1086 11.329C33.7246 11.329 34.1793 11.0687 34.4726 10.548C34.7659 10.0273 34.9126 9.217 34.9126 8.117C34.9126 7.00967 34.7659 6.203 34.4726 5.697C34.1866 5.18367 33.7319 4.927 33.1086 4.927C32.4926 4.927 32.0379 5.18367 31.7446 5.697C31.4513 6.21033 31.3046 7.017 31.3046 8.117C31.3046 9.217 31.4513 10.0273 31.7446 10.548C32.0379 11.0687 32.4926 11.329 33.1086 11.329ZM39.7043 12.088C38.817 12.088 38.1423 11.7507 37.6803 11.076C37.2183 10.4013 36.9873 9.41867 36.9873 8.128C36.9873 6.83 37.2183 5.84367 37.6803 5.169C38.1423 4.49433 38.817 4.157 39.7043 4.157C40.5916 4.157 41.2663 4.49433 41.7283 5.169C42.1903 5.83633 42.4213 6.819 42.4213 8.117C42.4213 9.415 42.1903 10.4013 41.7283 11.076C41.2663 11.7507 40.5916 12.088 39.7043 12.088ZM39.7043 11.329C40.3203 11.329 40.775 11.0687 41.0683 10.548C41.3616 10.0273 41.5083 9.217 41.5083 8.117C41.5083 7.00967 41.3616 6.203 41.0683 5.697C40.7823 5.18367 40.3276 4.927 39.7043 4.927C39.0883 4.927 38.6336 5.18367 38.3403 5.697C38.047 6.21033 37.9003 7.017 37.9003 8.117C37.9003 9.217 38.047 10.0273 38.3403 10.548C38.6336 11.0687 39.0883 11.329 39.7043 11.329Z" fill="#4F4F4F"/>
<path d="M12.1498 49.018C12.6045 49.1573 12.9565 49.3957 13.2058 49.733C13.4625 50.0703 13.5908 50.4737 13.5908 50.943C13.5908 51.6103 13.3488 52.1347 12.8648 52.516C12.3808 52.89 11.6951 53.077 10.8078 53.077C9.92048 53.077 9.23481 52.89 8.75081 52.516C8.26681 52.1347 8.02481 51.6103 8.02481 50.943C8.02481 50.4663 8.15315 50.0593 8.40981 49.722C8.66648 49.3847 9.02215 49.15 9.47681 49.018C9.08815 48.8713 8.78015 48.6403 8.55281 48.325C8.32548 48.0097 8.21181 47.6393 8.21181 47.214C8.21181 46.5833 8.43915 46.0847 8.89381 45.718C9.35581 45.344 9.99381 45.157 10.8078 45.157C11.6218 45.157 12.2561 45.344 12.7108 45.718C13.1728 46.0847 13.4038 46.5833 13.4038 47.214C13.4038 47.6393 13.2901 48.0133 13.0628 48.336C12.8355 48.6513 12.5311 48.8787 12.1498 49.018ZM9.10281 47.28C9.10281 47.7347 9.24581 48.083 9.53181 48.325C9.82515 48.567 10.2505 48.688 10.8078 48.688C11.3651 48.688 11.7868 48.567 12.0728 48.325C12.3661 48.083 12.5128 47.7347 12.5128 47.28C12.5128 46.8473 12.3661 46.51 12.0728 46.268C11.7868 46.026 11.3651 45.905 10.8078 45.905C10.2505 45.905 9.82515 46.026 9.53181 46.268C9.24581 46.51 9.10281 46.8473 9.10281 47.28ZM10.8078 52.329C12.0691 52.329 12.6998 51.8487 12.6998 50.888C12.6998 49.9273 12.0691 49.447 10.8078 49.447C9.54648 49.447 8.91581 49.9273 8.91581 50.888C8.91581 51.8487 9.54648 52.329 10.8078 52.329ZM17.4035 53.088C16.5162 53.088 15.8415 52.7507 15.3795 52.076C14.9175 51.4013 14.6865 50.4187 14.6865 49.128C14.6865 47.83 14.9175 46.8437 15.3795 46.169C15.8415 45.4943 16.5162 45.157 17.4035 45.157C18.2908 45.157 18.9655 45.4943 19.4275 46.169C19.8895 46.8363 20.1205 47.819 20.1205 49.117C20.1205 50.415 19.8895 51.4013 19.4275 52.076C18.9655 52.7507 18.2908 53.088 17.4035 53.088ZM17.4035 52.329C18.0195 52.329 18.4742 52.0687 18.7675 51.548C19.0608 51.0273 19.2075 50.217 19.2075 49.117C19.2075 48.0097 19.0608 47.203 18.7675 46.697C18.4815 46.1837 18.0268 45.927 17.4035 45.927C16.7875 45.927 16.3328 46.1837 16.0395 46.697C15.7462 47.2103 15.5995 48.017 15.5995 49.117C15.5995 50.217 15.7462 51.0273 16.0395 51.548C16.3328 52.0687 16.7875 52.329 17.4035 52.329ZM22.5142 51.878V52.67C22.5142 52.978 22.4629 53.2567 22.3602 53.506C22.2649 53.7627 22.0962 54.012 21.8542 54.254L21.4362 53.935C21.7222 53.6197 21.8836 53.308 21.9202 53H21.3922V51.878H22.5142ZM26.5129 53.088C25.6256 53.088 24.9509 52.7507 24.4889 52.076C24.0269 51.4013 23.7959 50.4187 23.7959 49.128C23.7959 47.83 24.0269 46.8437 24.4889 46.169C24.9509 45.4943 25.6256 45.157 26.5129 45.157C27.4002 45.157 28.0749 45.4943 28.5369 46.169C28.9989 46.8363 29.2299 47.819 29.2299 49.117C29.2299 50.415 28.9989 51.4013 28.5369 52.076C28.0749 52.7507 27.4002 53.088 26.5129 53.088ZM26.5129 52.329C27.1289 52.329 27.5836 52.0687 27.8769 51.548C28.1702 51.0273 28.3169 50.217 28.3169 49.117C28.3169 48.0097 28.1702 47.203 27.8769 46.697C27.5909 46.1837 27.1362 45.927 26.5129 45.927C25.8969 45.927 25.4422 46.1837 25.1489 46.697C24.8556 47.2103 24.7089 48.017 24.7089 49.117C24.7089 50.217 24.8556 51.0273 25.1489 51.548C25.4422 52.0687 25.8969 52.329 26.5129 52.329ZM33.1086 53.088C32.2213 53.088 31.5466 52.7507 31.0846 52.076C30.6226 51.4013 30.3916 50.4187 30.3916 49.128C30.3916 47.83 30.6226 46.8437 31.0846 46.169C31.5466 45.4943 32.2213 45.157 33.1086 45.157C33.9959 45.157 34.6706 45.4943 35.1326 46.169C35.5946 46.8363 35.8256 47.819 35.8256 49.117C35.8256 50.415 35.5946 51.4013 35.1326 52.076C34.6706 52.7507 33.9959 53.088 33.1086 53.088ZM33.1086 52.329C33.7246 52.329 34.1793 52.0687 34.4726 51.548C34.7659 51.0273 34.9126 50.217 34.9126 49.117C34.9126 48.0097 34.7659 47.203 34.4726 46.697C34.1866 46.1837 33.7319 45.927 33.1086 45.927C32.4926 45.927 32.0379 46.1837 31.7446 46.697C31.4513 47.2103 31.3046 48.017 31.3046 49.117C31.3046 50.217 31.4513 51.0273 31.7446 51.548C32.0379 52.0687 32.4926 52.329 33.1086 52.329ZM39.7043 53.088C38.817 53.088 38.1423 52.7507 37.6803 52.076C37.2183 51.4013 36.9873 50.4187 36.9873 49.128C36.9873 47.83 37.2183 46.8437 37.6803 46.169C38.1423 45.4943 38.817 45.157 39.7043 45.157C40.5916 45.157 41.2663 45.4943 41.7283 46.169C42.1903 46.8363 42.4213 47.819 42.4213 49.117C42.4213 50.415 42.1903 51.4013 41.7283 52.076C41.2663 52.7507 40.5916 53.088 39.7043 53.088ZM39.7043 52.329C40.3203 52.329 40.775 52.0687 41.0683 51.548C41.3616 51.0273 41.5083 50.217 41.5083 49.117C41.5083 48.0097 41.3616 47.203 41.0683 46.697C40.7823 46.1837 40.3276 45.927 39.7043 45.927C39.0883 45.927 38.6336 46.1837 38.3403 46.697C38.047 47.2103 37.9003 48.017 37.9003 49.117C37.9003 50.217 38.047 51.0273 38.3403 51.548C38.6336 52.0687 39.0883 52.329 39.7043 52.329Z" fill="#4F4F4F"/>
<path d="M11.1486 89.127C11.6179 89.127 12.0359 89.2297 12.4026 89.435C12.7692 89.6403 13.0552 89.93 13.2606 90.304C13.4659 90.678 13.5686 91.107 13.5686 91.591C13.5686 92.0677 13.4622 92.4967 13.2496 92.878C13.0369 93.2593 12.7399 93.5563 12.3586 93.769C11.9772 93.9817 11.5482 94.088 11.0716 94.088C10.1329 94.088 9.40689 93.7617 8.89355 93.109C8.38755 92.4563 8.13455 91.525 8.13455 90.315C8.13455 89.4423 8.25189 88.6943 8.48655 88.071C8.72855 87.4477 9.07322 86.9747 9.52055 86.652C9.96789 86.322 10.5032 86.157 11.1266 86.157C11.5739 86.157 12.0102 86.2413 12.4356 86.41C12.8609 86.5713 13.2349 86.806 13.5576 87.114L13.2166 87.807C12.8499 87.499 12.4979 87.2753 12.1606 87.136C11.8306 86.9893 11.4932 86.916 11.1486 86.916C10.4812 86.916 9.96055 87.213 9.58655 87.807C9.21989 88.3937 9.03655 89.226 9.03655 90.304V90.469C9.20522 90.0583 9.47655 89.732 9.85055 89.49C10.2246 89.248 10.6572 89.127 11.1486 89.127ZM11.0276 93.329C11.5262 93.329 11.9259 93.1713 12.2266 92.856C12.5272 92.5407 12.6776 92.1227 12.6776 91.602C12.6776 91.0887 12.5236 90.6743 12.2156 90.359C11.9149 90.0437 11.5152 89.886 11.0166 89.886C10.5106 89.886 10.0962 90.0473 9.77355 90.37C9.45822 90.6853 9.30055 91.096 9.30055 91.602C9.30055 92.1153 9.45822 92.5333 9.77355 92.856C10.0962 93.1713 10.5142 93.329 11.0276 93.329ZM17.4035 94.088C16.5162 94.088 15.8415 93.7507 15.3795 93.076C14.9175 92.4013 14.6865 91.4187 14.6865 90.128C14.6865 88.83 14.9175 87.8437 15.3795 87.169C15.8415 86.4943 16.5162 86.157 17.4035 86.157C18.2908 86.157 18.9655 86.4943 19.4275 87.169C19.8895 87.8363 20.1205 88.819 20.1205 90.117C20.1205 91.415 19.8895 92.4013 19.4275 93.076C18.9655 93.7507 18.2908 94.088 17.4035 94.088ZM17.4035 93.329C18.0195 93.329 18.4742 93.0687 18.7675 92.548C19.0608 92.0273 19.2075 91.217 19.2075 90.117C19.2075 89.0097 19.0608 88.203 18.7675 87.697C18.4815 87.1837 18.0268 86.927 17.4035 86.927C16.7875 86.927 16.3328 87.1837 16.0395 87.697C15.7462 88.2103 15.5995 89.017 15.5995 90.117C15.5995 91.217 15.7462 92.0273 16.0395 92.548C16.3328 93.0687 16.7875 93.329 17.4035 93.329ZM22.5142 92.878V93.67C22.5142 93.978 22.4629 94.2567 22.3602 94.506C22.2649 94.7627 22.0962 95.012 21.8542 95.254L21.4362 94.935C21.7222 94.6197 21.8836 94.308 21.9202 94H21.3922V92.878H22.5142ZM26.5129 94.088C25.6256 94.088 24.9509 93.7507 24.4889 93.076C24.0269 92.4013 23.7959 91.4187 23.7959 90.128C23.7959 88.83 24.0269 87.8437 24.4889 87.169C24.9509 86.4943 25.6256 86.157 26.5129 86.157C27.4002 86.157 28.0749 86.4943 28.5369 87.169C28.9989 87.8363 29.2299 88.819 29.2299 90.117C29.2299 91.415 28.9989 92.4013 28.5369 93.076C28.0749 93.7507 27.4002 94.088 26.5129 94.088ZM26.5129 93.329C27.1289 93.329 27.5836 93.0687 27.8769 92.548C28.1702 92.0273 28.3169 91.217 28.3169 90.117C28.3169 89.0097 28.1702 88.203 27.8769 87.697C27.5909 87.1837 27.1362 86.927 26.5129 86.927C25.8969 86.927 25.4422 87.1837 25.1489 87.697C24.8556 88.2103 24.7089 89.017 24.7089 90.117C24.7089 91.217 24.8556 92.0273 25.1489 92.548C25.4422 93.0687 25.8969 93.329 26.5129 93.329ZM33.1086 94.088C32.2213 94.088 31.5466 93.7507 31.0846 93.076C30.6226 92.4013 30.3916 91.4187 30.3916 90.128C30.3916 88.83 30.6226 87.8437 31.0846 87.169C31.5466 86.4943 32.2213 86.157 33.1086 86.157C33.9959 86.157 34.6706 86.4943 35.1326 87.169C35.5946 87.8363 35.8256 88.819 35.8256 90.117C35.8256 91.415 35.5946 92.4013 35.1326 93.076C34.6706 93.7507 33.9959 94.088 33.1086 94.088ZM33.1086 93.329C33.7246 93.329 34.1793 93.0687 34.4726 92.548C34.7659 92.0273 34.9126 91.217 34.9126 90.117C34.9126 89.0097 34.7659 88.203 34.4726 87.697C34.1866 87.1837 33.7319 86.927 33.1086 86.927C32.4926 86.927 32.0379 87.1837 31.7446 87.697C31.4513 88.2103 31.3046 89.017 31.3046 90.117C31.3046 91.217 31.4513 92.0273 31.7446 92.548C32.0379 93.0687 32.4926 93.329 33.1086 93.329ZM39.7043 94.088C38.817 94.088 38.1423 93.7507 37.6803 93.076C37.2183 92.4013 36.9873 91.4187 36.9873 90.128C36.9873 88.83 37.2183 87.8437 37.6803 87.169C38.1423 86.4943 38.817 86.157 39.7043 86.157C40.5916 86.157 41.2663 86.4943 41.7283 87.169C42.1903 87.8363 42.4213 88.819 42.4213 90.117C42.4213 91.415 42.1903 92.4013 41.7283 93.076C41.2663 93.7507 40.5916 94.088 39.7043 94.088ZM39.7043 93.329C40.3203 93.329 40.775 93.0687 41.0683 92.548C41.3616 92.0273 41.5083 91.217 41.5083 90.117C41.5083 89.0097 41.3616 88.203 41.0683 87.697C40.7823 87.1837 40.3276 86.927 39.7043 86.927C39.0883 86.927 38.6336 87.1837 38.3403 87.697C38.047 88.2103 37.9003 89.017 37.9003 90.117C37.9003 91.217 38.047 92.0273 38.3403 92.548C38.6336 93.0687 39.0883 93.329 39.7043 93.329Z" fill="#4F4F4F"/>
<path d="M13.7118 133.317H12.5458V135H11.6548V133.317H8.06881V132.635L11.8088 127.245H12.5458V132.569H13.7118V133.317ZM11.6548 132.569V128.752L9.00381 132.569H11.6548ZM17.4035 135.088C16.5162 135.088 15.8415 134.751 15.3795 134.076C14.9175 133.401 14.6865 132.419 14.6865 131.128C14.6865 129.83 14.9175 128.844 15.3795 128.169C15.8415 127.494 16.5162 127.157 17.4035 127.157C18.2908 127.157 18.9655 127.494 19.4275 128.169C19.8895 128.836 20.1205 129.819 20.1205 131.117C20.1205 132.415 19.8895 133.401 19.4275 134.076C18.9655 134.751 18.2908 135.088 17.4035 135.088ZM17.4035 134.329C18.0195 134.329 18.4742 134.069 18.7675 133.548C19.0608 133.027 19.2075 132.217 19.2075 131.117C19.2075 130.01 19.0608 129.203 18.7675 128.697C18.4815 128.184 18.0268 127.927 17.4035 127.927C16.7875 127.927 16.3328 128.184 16.0395 128.697C15.7462 129.21 15.5995 130.017 15.5995 131.117C15.5995 132.217 15.7462 133.027 16.0395 133.548C16.3328 134.069 16.7875 134.329 17.4035 134.329ZM22.5142 133.878V134.67C22.5142 134.978 22.4629 135.257 22.3602 135.506C22.2649 135.763 22.0962 136.012 21.8542 136.254L21.4362 135.935C21.7222 135.62 21.8836 135.308 21.9202 135H21.3922V133.878H22.5142ZM26.5129 135.088C25.6256 135.088 24.9509 134.751 24.4889 134.076C24.0269 133.401 23.7959 132.419 23.7959 131.128C23.7959 129.83 24.0269 128.844 24.4889 128.169C24.9509 127.494 25.6256 127.157 26.5129 127.157C27.4002 127.157 28.0749 127.494 28.5369 128.169C28.9989 128.836 29.2299 129.819 29.2299 131.117C29.2299 132.415 28.9989 133.401 28.5369 134.076C28.0749 134.751 27.4002 135.088 26.5129 135.088ZM26.5129 134.329C27.1289 134.329 27.5836 134.069 27.8769 133.548C28.1702 133.027 28.3169 132.217 28.3169 131.117C28.3169 130.01 28.1702 129.203 27.8769 128.697C27.5909 128.184 27.1362 127.927 26.5129 127.927C25.8969 127.927 25.4422 128.184 25.1489 128.697C24.8556 129.21 24.7089 130.017 24.7089 131.117C24.7089 132.217 24.8556 133.027 25.1489 133.548C25.4422 134.069 25.8969 134.329 26.5129 134.329ZM33.1086 135.088C32.2213 135.088 31.5466 134.751 31.0846 134.076C30.6226 133.401 30.3916 132.419 30.3916 131.128C30.3916 129.83 30.6226 128.844 31.0846 128.169C31.5466 127.494 32.2213 127.157 33.1086 127.157C33.9959 127.157 34.6706 127.494 35.1326 128.169C35.5946 128.836 35.8256 129.819 35.8256 131.117C35.8256 132.415 35.5946 133.401 35.1326 134.076C34.6706 134.751 33.9959 135.088 33.1086 135.088ZM33.1086 134.329C33.7246 134.329 34.1793 134.069 34.4726 133.548C34.7659 133.027 34.9126 132.217 34.9126 131.117C34.9126 130.01 34.7659 129.203 34.4726 128.697C34.1866 128.184 33.7319 127.927 33.1086 127.927C32.4926 127.927 32.0379 128.184 31.7446 128.697C31.4513 129.21 31.3046 130.017 31.3046 131.117C31.3046 132.217 31.4513 133.027 31.7446 133.548C32.0379 134.069 32.4926 134.329 33.1086 134.329ZM39.7043 135.088C38.817 135.088 38.1423 134.751 37.6803 134.076C37.2183 133.401 36.9873 132.419 36.9873 131.128C36.9873 129.83 37.2183 128.844 37.6803 128.169C38.1423 127.494 38.817 127.157 39.7043 127.157C40.5916 127.157 41.2663 127.494 41.7283 128.169C42.1903 128.836 42.4213 129.819 42.4213 131.117C42.4213 132.415 42.1903 133.401 41.7283 134.076C41.2663 134.751 40.5916 135.088 39.7043 135.088ZM39.7043 134.329C40.3203 134.329 40.775 134.069 41.0683 133.548C41.3616 133.027 41.5083 132.217 41.5083 131.117C41.5083 130.01 41.3616 129.203 41.0683 128.697C40.7823 128.184 40.3276 127.927 39.7043 127.927C39.0883 127.927 38.6336 128.184 38.3403 128.697C38.047 129.21 37.9003 130.017 37.9003 131.117C37.9003 132.217 38.047 133.027 38.3403 133.548C38.6336 134.069 39.0883 134.329 39.7043 134.329Z" fill="#4F4F4F"/>
<path d="M13.4368 175.241V176H8.44281V175.318L11.1598 172.326C11.5265 171.915 11.7905 171.549 11.9518 171.226C12.1205 170.896 12.2048 170.566 12.2048 170.236C12.2048 169.811 12.0801 169.484 11.8308 169.257C11.5815 169.03 11.2295 168.916 10.7748 168.916C10.0268 168.916 9.29348 169.213 8.57481 169.807L8.23381 169.114C8.54181 168.821 8.92681 168.59 9.38881 168.421C9.85815 168.245 10.3275 168.157 10.7968 168.157C11.5081 168.157 12.0691 168.34 12.4798 168.707C12.8978 169.074 13.1068 169.569 13.1068 170.192C13.1068 170.639 13.0041 171.068 12.7988 171.479C12.6008 171.89 12.2708 172.348 11.8088 172.854L9.60881 175.241H13.4368ZM17.4035 176.088C16.5162 176.088 15.8415 175.751 15.3795 175.076C14.9175 174.401 14.6865 173.419 14.6865 172.128C14.6865 170.83 14.9175 169.844 15.3795 169.169C15.8415 168.494 16.5162 168.157 17.4035 168.157C18.2908 168.157 18.9655 168.494 19.4275 169.169C19.8895 169.836 20.1205 170.819 20.1205 172.117C20.1205 173.415 19.8895 174.401 19.4275 175.076C18.9655 175.751 18.2908 176.088 17.4035 176.088ZM17.4035 175.329C18.0195 175.329 18.4742 175.069 18.7675 174.548C19.0608 174.027 19.2075 173.217 19.2075 172.117C19.2075 171.01 19.0608 170.203 18.7675 169.697C18.4815 169.184 18.0268 168.927 17.4035 168.927C16.7875 168.927 16.3328 169.184 16.0395 169.697C15.7462 170.21 15.5995 171.017 15.5995 172.117C15.5995 173.217 15.7462 174.027 16.0395 174.548C16.3328 175.069 16.7875 175.329 17.4035 175.329ZM22.5142 174.878V175.67C22.5142 175.978 22.4629 176.257 22.3602 176.506C22.2649 176.763 22.0962 177.012 21.8542 177.254L21.4362 176.935C21.7222 176.62 21.8836 176.308 21.9202 176H21.3922V174.878H22.5142ZM26.5129 176.088C25.6256 176.088 24.9509 175.751 24.4889 175.076C24.0269 174.401 23.7959 173.419 23.7959 172.128C23.7959 170.83 24.0269 169.844 24.4889 169.169C24.9509 168.494 25.6256 168.157 26.5129 168.157C27.4002 168.157 28.0749 168.494 28.5369 169.169C28.9989 169.836 29.2299 170.819 29.2299 172.117C29.2299 173.415 28.9989 174.401 28.5369 175.076C28.0749 175.751 27.4002 176.088 26.5129 176.088ZM26.5129 175.329C27.1289 175.329 27.5836 175.069 27.8769 174.548C28.1702 174.027 28.3169 173.217 28.3169 172.117C28.3169 171.01 28.1702 170.203 27.8769 169.697C27.5909 169.184 27.1362 168.927 26.5129 168.927C25.8969 168.927 25.4422 169.184 25.1489 169.697C24.8556 170.21 24.7089 171.017 24.7089 172.117C24.7089 173.217 24.8556 174.027 25.1489 174.548C25.4422 175.069 25.8969 175.329 26.5129 175.329ZM33.1086 176.088C32.2213 176.088 31.5466 175.751 31.0846 175.076C30.6226 174.401 30.3916 173.419 30.3916 172.128C30.3916 170.83 30.6226 169.844 31.0846 169.169C31.5466 168.494 32.2213 168.157 33.1086 168.157C33.9959 168.157 34.6706 168.494 35.1326 169.169C35.5946 169.836 35.8256 170.819 35.8256 172.117C35.8256 173.415 35.5946 174.401 35.1326 175.076C34.6706 175.751 33.9959 176.088 33.1086 176.088ZM33.1086 175.329C33.7246 175.329 34.1793 175.069 34.4726 174.548C34.7659 174.027 34.9126 173.217 34.9126 172.117C34.9126 171.01 34.7659 170.203 34.4726 169.697C34.1866 169.184 33.7319 168.927 33.1086 168.927C32.4926 168.927 32.0379 169.184 31.7446 169.697C31.4513 170.21 31.3046 171.017 31.3046 172.117C31.3046 173.217 31.4513 174.027 31.7446 174.548C32.0379 175.069 32.4926 175.329 33.1086 175.329ZM39.7043 176.088C38.817 176.088 38.1423 175.751 37.6803 175.076C37.2183 174.401 36.9873 173.419 36.9873 172.128C36.9873 170.83 37.2183 169.844 37.6803 169.169C38.1423 168.494 38.817 168.157 39.7043 168.157C40.5916 168.157 41.2663 168.494 41.7283 169.169C42.1903 169.836 42.4213 170.819 42.4213 172.117C42.4213 173.415 42.1903 174.401 41.7283 175.076C41.2663 175.751 40.5916 176.088 39.7043 176.088ZM39.7043 175.329C40.3203 175.329 40.775 175.069 41.0683 174.548C41.3616 174.027 41.5083 173.217 41.5083 172.117C41.5083 171.01 41.3616 170.203 41.0683 169.697C40.7823 169.184 40.3276 168.927 39.7043 168.927C39.0883 168.927 38.6336 169.184 38.3403 169.697C38.047 170.21 37.9003 171.017 37.9003 172.117C37.9003 173.217 38.047 174.027 38.3403 174.548C38.6336 175.069 39.0883 175.329 39.7043 175.329Z" fill="#4F4F4F"/>
<path d="M56.7043 194.088C55.817 194.088 55.1423 193.751 54.6803 193.076C54.2183 192.401 53.9873 191.419 53.9873 190.128C53.9873 188.83 54.2183 187.844 54.6803 187.169C55.1423 186.494 55.817 186.157 56.7043 186.157C57.5916 186.157 58.2663 186.494 58.7283 187.169C59.1903 187.836 59.4213 188.819 59.4213 190.117C59.4213 191.415 59.1903 192.401 58.7283 193.076C58.2663 193.751 57.5916 194.088 56.7043 194.088ZM56.7043 193.329C57.3203 193.329 57.775 193.069 58.0683 192.548C58.3616 192.027 58.5083 191.217 58.5083 190.117C58.5083 189.01 58.3616 188.203 58.0683 187.697C57.7823 187.184 57.3276 186.927 56.7043 186.927C56.0883 186.927 55.6336 187.184 55.3403 187.697C55.047 188.21 54.9003 189.017 54.9003 190.117C54.9003 191.217 55.047 192.027 55.3403 192.548C55.6336 193.069 56.0883 193.329 56.7043 193.329ZM65.929 193.241V194H60.935V193.318L63.652 190.326C64.0187 189.915 64.2827 189.549 64.444 189.226C64.6127 188.896 64.697 188.566 64.697 188.236C64.697 187.811 64.5723 187.484 64.323 187.257C64.0737 187.03 63.7217 186.916 63.267 186.916C62.519 186.916 61.7857 187.213 61.067 187.807L60.726 187.114C61.034 186.821 61.419 186.59 61.881 186.421C62.3503 186.245 62.8197 186.157 63.289 186.157C64.0003 186.157 64.5613 186.34 64.972 186.707C65.39 187.074 65.599 187.569 65.599 188.192C65.599 188.639 65.4963 189.068 65.291 189.479C65.093 189.89 64.763 190.348 64.301 190.854L62.101 193.241H65.929Z" fill="#4F4F4F"/>
<path d="M84.7043 194.088C83.817 194.088 83.1423 193.751 82.6803 193.076C82.2183 192.401 81.9873 191.419 81.9873 190.128C81.9873 188.83 82.2183 187.844 82.6803 187.169C83.1423 186.494 83.817 186.157 84.7043 186.157C85.5916 186.157 86.2663 186.494 86.7283 187.169C87.1903 187.836 87.4213 188.819 87.4213 190.117C87.4213 191.415 87.1903 192.401 86.7283 193.076C86.2663 193.751 85.5916 194.088 84.7043 194.088ZM84.7043 193.329C85.3203 193.329 85.775 193.069 86.0683 192.548C86.3616 192.027 86.5083 191.217 86.5083 190.117C86.5083 189.01 86.3616 188.203 86.0683 187.697C85.7823 187.184 85.3276 186.927 84.7043 186.927C84.0883 186.927 83.6336 187.184 83.3403 187.697C83.047 188.21 82.9003 189.017 82.9003 190.117C82.9003 191.217 83.047 192.027 83.3403 192.548C83.6336 193.069 84.0883 193.329 84.7043 193.329ZM94.204 192.317H93.038V194H92.147V192.317H88.561V191.635L92.301 186.245H93.038V191.569H94.204V192.317ZM92.147 191.569V187.752L89.496 191.569H92.147Z" fill="#4F4F4F"/>
<path d="M112.71 194.088C111.822 194.088 111.148 193.751 110.686 193.076C110.224 192.401 109.993 191.419 109.993 190.128C109.993 188.83 110.224 187.844 110.686 187.169C111.148 186.494 111.822 186.157 112.71 186.157C113.597 186.157 114.272 186.494 114.734 187.169C115.196 187.836 115.427 188.819 115.427 190.117C115.427 191.415 115.196 192.401 114.734 193.076C114.272 193.751 113.597 194.088 112.71 194.088ZM112.71 193.329C113.326 193.329 113.78 193.069 114.074 192.548C114.367 192.027 114.514 191.217 114.514 190.117C114.514 189.01 114.367 188.203 114.074 187.697C113.788 187.184 113.333 186.927 112.71 186.927C112.094 186.927 111.639 187.184 111.346 187.697C111.052 188.21 110.906 189.017 110.906 190.117C110.906 191.217 111.052 192.027 111.346 192.548C111.639 193.069 112.094 193.329 112.71 193.329ZM119.635 189.127C120.105 189.127 120.523 189.23 120.889 189.435C121.256 189.64 121.542 189.93 121.747 190.304C121.953 190.678 122.055 191.107 122.055 191.591C122.055 192.068 121.949 192.497 121.736 192.878C121.524 193.259 121.227 193.556 120.845 193.769C120.464 193.982 120.035 194.088 119.558 194.088C118.62 194.088 117.894 193.762 117.38 193.109C116.874 192.456 116.621 191.525 116.621 190.315C116.621 189.442 116.739 188.694 116.973 188.071C117.215 187.448 117.56 186.975 118.007 186.652C118.455 186.322 118.99 186.157 119.613 186.157C120.061 186.157 120.497 186.241 120.922 186.41C121.348 186.571 121.722 186.806 122.044 187.114L121.703 187.807C121.337 187.499 120.985 187.275 120.647 187.136C120.317 186.989 119.98 186.916 119.635 186.916C118.968 186.916 118.447 187.213 118.073 187.807C117.707 188.394 117.523 189.226 117.523 190.304V190.469C117.692 190.058 117.963 189.732 118.337 189.49C118.711 189.248 119.144 189.127 119.635 189.127ZM119.514 193.329C120.013 193.329 120.413 193.171 120.713 192.856C121.014 192.541 121.164 192.123 121.164 191.602C121.164 191.089 121.01 190.674 120.702 190.359C120.402 190.044 120.002 189.886 119.503 189.886C118.997 189.886 118.583 190.047 118.26 190.37C117.945 190.685 117.787 191.096 117.787 191.602C117.787 192.115 117.945 192.533 118.26 192.856C118.583 193.171 119.001 193.329 119.514 193.329Z" fill="#4F4F4F"/>
<path d="M140.704 194.088C139.817 194.088 139.142 193.751 138.68 193.076C138.218 192.401 137.987 191.419 137.987 190.128C137.987 188.83 138.218 187.844 138.68 187.169C139.142 186.494 139.817 186.157 140.704 186.157C141.592 186.157 142.266 186.494 142.728 187.169C143.19 187.836 143.421 188.819 143.421 190.117C143.421 191.415 143.19 192.401 142.728 193.076C142.266 193.751 141.592 194.088 140.704 194.088ZM140.704 193.329C141.32 193.329 141.775 193.069 142.068 192.548C142.362 192.027 142.508 191.217 142.508 190.117C142.508 189.01 142.362 188.203 142.068 187.697C141.782 187.184 141.328 186.927 140.704 186.927C140.088 186.927 139.634 187.184 139.34 187.697C139.047 188.21 138.9 189.017 138.9 190.117C138.9 191.217 139.047 192.027 139.34 192.548C139.634 193.069 140.088 193.329 140.704 193.329ZM148.642 190.018C149.097 190.157 149.449 190.396 149.698 190.733C149.955 191.07 150.083 191.474 150.083 191.943C150.083 192.61 149.841 193.135 149.357 193.516C148.873 193.89 148.187 194.077 147.3 194.077C146.413 194.077 145.727 193.89 145.243 193.516C144.759 193.135 144.517 192.61 144.517 191.943C144.517 191.466 144.645 191.059 144.902 190.722C145.159 190.385 145.514 190.15 145.969 190.018C145.58 189.871 145.272 189.64 145.045 189.325C144.818 189.01 144.704 188.639 144.704 188.214C144.704 187.583 144.931 187.085 145.386 186.718C145.848 186.344 146.486 186.157 147.3 186.157C148.114 186.157 148.748 186.344 149.203 186.718C149.665 187.085 149.896 187.583 149.896 188.214C149.896 188.639 149.782 189.013 149.555 189.336C149.328 189.651 149.023 189.879 148.642 190.018ZM145.595 188.28C145.595 188.735 145.738 189.083 146.024 189.325C146.317 189.567 146.743 189.688 147.3 189.688C147.857 189.688 148.279 189.567 148.565 189.325C148.858 189.083 149.005 188.735 149.005 188.28C149.005 187.847 148.858 187.51 148.565 187.268C148.279 187.026 147.857 186.905 147.3 186.905C146.743 186.905 146.317 187.026 146.024 187.268C145.738 187.51 145.595 187.847 145.595 188.28ZM147.3 193.329C148.561 193.329 149.192 192.849 149.192 191.888C149.192 190.927 148.561 190.447 147.3 190.447C146.039 190.447 145.408 190.927 145.408 191.888C145.408 192.849 146.039 193.329 147.3 193.329Z" fill="#4F4F4F"/>
<path d="M171.146 193.241V194H166.834V193.241H168.539V187.367L167.175 188.225L166.757 187.532L168.792 186.245H169.441V193.241H171.146ZM175.3 194.088C174.413 194.088 173.738 193.751 173.276 193.076C172.814 192.401 172.583 191.419 172.583 190.128C172.583 188.83 172.814 187.844 173.276 187.169C173.738 186.494 174.413 186.157 175.3 186.157C176.187 186.157 176.862 186.494 177.324 187.169C177.786 187.836 178.017 188.819 178.017 190.117C178.017 191.415 177.786 192.401 177.324 193.076C176.862 193.751 176.187 194.088 175.3 194.088ZM175.3 193.329C175.916 193.329 176.371 193.069 176.664 192.548C176.957 192.027 177.104 191.217 177.104 190.117C177.104 189.01 176.957 188.203 176.664 187.697C176.378 187.184 175.923 186.927 175.3 186.927C174.684 186.927 174.229 187.184 173.936 187.697C173.643 188.21 173.496 189.017 173.496 190.117C173.496 191.217 173.643 192.027 173.936 192.548C174.229 193.069 174.684 193.329 175.3 193.329Z" fill="#4F4F4F"/>
<path d="M199.146 193.241V194H194.834V193.241H196.539V187.367L195.175 188.225L194.757 187.532L196.792 186.245H197.441V193.241H199.146ZM205.929 193.241V194H200.935V193.318L203.652 190.326C204.019 189.915 204.283 189.549 204.444 189.226C204.613 188.896 204.697 188.566 204.697 188.236C204.697 187.811 204.572 187.484 204.323 187.257C204.074 187.03 203.722 186.916 203.267 186.916C202.519 186.916 201.786 187.213 201.067 187.807L200.726 187.114C201.034 186.821 201.419 186.59 201.881 186.421C202.35 186.245 202.82 186.157 203.289 186.157C204 186.157 204.561 186.34 204.972 186.707C205.39 187.074 205.599 187.569 205.599 188.192C205.599 188.639 205.496 189.068 205.291 189.479C205.093 189.89 204.763 190.348 204.301 190.854L202.101 193.241H205.929Z" fill="#4F4F4F"/>
<path d="M227.146 193.241V194H222.834V193.241H224.539V187.367L223.175 188.225L222.757 187.532L224.792 186.245H225.441V193.241H227.146ZM234.204 192.317H233.038V194H232.147V192.317H228.561V191.635L232.301 186.245H233.038V191.569H234.204V192.317ZM232.147 191.569V187.752L229.496 191.569H232.147Z" fill="#4F4F4F"/>
<path d="M255.152 193.241V194H250.84V193.241H252.545V187.367L251.181 188.225L250.763 187.532L252.798 186.245H253.447V193.241H255.152ZM259.635 189.127C260.105 189.127 260.523 189.23 260.889 189.435C261.256 189.64 261.542 189.93 261.747 190.304C261.953 190.678 262.055 191.107 262.055 191.591C262.055 192.068 261.949 192.497 261.736 192.878C261.524 193.259 261.227 193.556 260.845 193.769C260.464 193.982 260.035 194.088 259.558 194.088C258.62 194.088 257.894 193.762 257.38 193.109C256.874 192.456 256.621 191.525 256.621 190.315C256.621 189.442 256.739 188.694 256.973 188.071C257.215 187.448 257.56 186.975 258.007 186.652C258.455 186.322 258.99 186.157 259.613 186.157C260.061 186.157 260.497 186.241 260.922 186.41C261.348 186.571 261.722 186.806 262.044 187.114L261.703 187.807C261.337 187.499 260.985 187.275 260.647 187.136C260.317 186.989 259.98 186.916 259.635 186.916C258.968 186.916 258.447 187.213 258.073 187.807C257.707 188.394 257.523 189.226 257.523 190.304V190.469C257.692 190.058 257.963 189.732 258.337 189.49C258.711 189.248 259.144 189.127 259.635 189.127ZM259.514 193.329C260.013 193.329 260.413 193.171 260.713 192.856C261.014 192.541 261.164 192.123 261.164 191.602C261.164 191.089 261.01 190.674 260.702 190.359C260.402 190.044 260.002 189.886 259.503 189.886C258.997 189.886 258.583 190.047 258.26 190.37C257.945 190.685 257.787 191.096 257.787 191.602C257.787 192.115 257.945 192.533 258.26 192.856C258.583 193.171 259.001 193.329 259.514 193.329Z" fill="#4F4F4F"/>
<path d="M283.146 193.241V194H278.834V193.241H280.539V187.367L279.175 188.225L278.757 187.532L280.792 186.245H281.441V193.241H283.146ZM288.642 190.018C289.097 190.157 289.449 190.396 289.698 190.733C289.955 191.07 290.083 191.474 290.083 191.943C290.083 192.61 289.841 193.135 289.357 193.516C288.873 193.89 288.187 194.077 287.3 194.077C286.413 194.077 285.727 193.89 285.243 193.516C284.759 193.135 284.517 192.61 284.517 191.943C284.517 191.466 284.645 191.059 284.902 190.722C285.159 190.385 285.514 190.15 285.969 190.018C285.58 189.871 285.272 189.64 285.045 189.325C284.818 189.01 284.704 188.639 284.704 188.214C284.704 187.583 284.931 187.085 285.386 186.718C285.848 186.344 286.486 186.157 287.3 186.157C288.114 186.157 288.748 186.344 289.203 186.718C289.665 187.085 289.896 187.583 289.896 188.214C289.896 188.639 289.782 189.013 289.555 189.336C289.328 189.651 289.023 189.879 288.642 190.018ZM285.595 188.28C285.595 188.735 285.738 189.083 286.024 189.325C286.317 189.567 286.743 189.688 287.3 189.688C287.857 189.688 288.279 189.567 288.565 189.325C288.858 189.083 289.005 188.735 289.005 188.28C289.005 187.847 288.858 187.51 288.565 187.268C288.279 187.026 287.857 186.905 287.3 186.905C286.743 186.905 286.317 187.026 286.024 187.268C285.738 187.51 285.595 187.847 285.595 188.28ZM287.3 193.329C288.561 193.329 289.192 192.849 289.192 191.888C289.192 190.927 288.561 190.447 287.3 190.447C286.039 190.447 285.408 190.927 285.408 191.888C285.408 192.849 286.039 193.329 287.3 193.329Z" fill="#4F4F4F"/>
<path d="M311.333 193.241V194H306.339V193.318L309.056 190.326C309.423 189.915 309.687 189.549 309.848 189.226C310.017 188.896 310.101 188.566 310.101 188.236C310.101 187.811 309.977 187.484 309.727 187.257C309.478 187.03 309.126 186.916 308.671 186.916C307.923 186.916 307.19 187.213 306.471 187.807L306.13 187.114C306.438 186.821 306.823 186.59 307.285 186.421C307.755 186.245 308.224 186.157 308.693 186.157C309.405 186.157 309.966 186.34 310.376 186.707C310.794 187.074 311.003 187.569 311.003 188.192C311.003 188.639 310.901 189.068 310.695 189.479C310.497 189.89 310.167 190.348 309.705 190.854L307.505 193.241H311.333ZM315.3 194.088C314.413 194.088 313.738 193.751 313.276 193.076C312.814 192.401 312.583 191.419 312.583 190.128C312.583 188.83 312.814 187.844 313.276 187.169C313.738 186.494 314.413 186.157 315.3 186.157C316.187 186.157 316.862 186.494 317.324 187.169C317.786 187.836 318.017 188.819 318.017 190.117C318.017 191.415 317.786 192.401 317.324 193.076C316.862 193.751 316.187 194.088 315.3 194.088ZM315.3 193.329C315.916 193.329 316.371 193.069 316.664 192.548C316.957 192.027 317.104 191.217 317.104 190.117C317.104 189.01 316.957 188.203 316.664 187.697C316.378 187.184 315.923 186.927 315.3 186.927C314.684 186.927 314.229 187.184 313.936 187.697C313.643 188.21 313.496 189.017 313.496 190.117C313.496 191.217 313.643 192.027 313.936 192.548C314.229 193.069 314.684 193.329 315.3 193.329Z" fill="#4F4F4F"/>
<path d="M339.333 193.241V194H334.339V193.318L337.056 190.326C337.423 189.915 337.687 189.549 337.848 189.226C338.017 188.896 338.101 188.566 338.101 188.236C338.101 187.811 337.977 187.484 337.727 187.257C337.478 187.03 337.126 186.916 336.671 186.916C335.923 186.916 335.19 187.213 334.471 187.807L334.13 187.114C334.438 186.821 334.823 186.59 335.285 186.421C335.755 186.245 336.224 186.157 336.693 186.157C337.405 186.157 337.966 186.34 338.376 186.707C338.794 187.074 339.003 187.569 339.003 188.192C339.003 188.639 338.901 189.068 338.695 189.479C338.497 189.89 338.167 190.348 337.705 190.854L335.505 193.241H339.333ZM345.929 193.241V194H340.935V193.318L343.652 190.326C344.019 189.915 344.283 189.549 344.444 189.226C344.613 188.896 344.697 188.566 344.697 188.236C344.697 187.811 344.572 187.484 344.323 187.257C344.074 187.03 343.722 186.916 343.267 186.916C342.519 186.916 341.786 187.213 341.067 187.807L340.726 187.114C341.034 186.821 341.419 186.59 341.881 186.421C342.35 186.245 342.82 186.157 343.289 186.157C344 186.157 344.561 186.34 344.972 186.707C345.39 187.074 345.599 187.569 345.599 188.192C345.599 188.639 345.496 189.068 345.291 189.479C345.093 189.89 344.763 190.348 344.301 190.854L342.101 193.241H345.929Z" fill="#4F4F4F"/>
<line x1="461" y1="171.5" x2="53" y2="171.5" stroke="#ECF0F4"/>
<line x1="460.5" y1="7.5" x2="53.5" y2="7.49997" stroke="#ECF0F4" stroke-linecap="round" stroke-dasharray="4 4"/>
<line x1="460.5" y1="48.5" x2="53.5" y2="48.5" stroke="#ECF0F4" stroke-linecap="round" stroke-dasharray="4 4"/>
<line x1="460.5" y1="89.5" x2="53.5" y2="89.5" stroke="#ECF0F4" stroke-linecap="round" stroke-dasharray="4 4"/>
<line x1="460.5" y1="130.5" x2="53.5" y2="130.5" stroke="#ECF0F4" stroke-linecap="round" stroke-dasharray="4 4"/>
<path d="M58 55.5C58 54.1193 59.1193 53 60.5 53C61.8807 53 63 54.1193 63 55.5V172H58V55.5Z" fill="#38C976"/>
<path d="M86 27.5C86 26.1193 87.1193 25 88.5 25C89.8807 25 91 26.1193 91 27.5V172H86V27.5Z" fill="#38C976"/>
<path d="M114 66.5C114 65.1193 115.119 64 116.5 64C117.881 64 119 65.1193 119 66.5V172H114V66.5Z" fill="#38C976"/>
<path d="M226 14.5C226 13.1193 227.119 12 228.5 12C229.881 12 231 13.1193 231 14.5V172H226V14.5Z" fill="#38C976"/>
<path d="M338 78.5C338 77.1193 339.119 76 340.5 76C341.881 76 343 77.1193 343 78.5V172H338V78.5Z" fill="#38C976"/>
<path d="M142 27.5C142 26.1193 143.119 25 144.5 25C145.881 25 147 26.1193 147 27.5V172H142V27.5Z" fill="#38C976"/>
<path d="M254 55.5C254 54.1193 255.119 53 256.5 53C257.881 53 259 54.1193 259 55.5V172H254V55.5Z" fill="#38C976"/>
<path d="M170 59.5C170 58.1193 171.119 57 172.5 57C173.881 57 175 58.1193 175 59.5V172H170V59.5Z" fill="#38C976"/>
<path d="M282 18.5C282 17.1193 283.119 16 284.5 16C285.881 16 287 17.1193 287 18.5V172H282V18.5Z" fill="#38C976"/>
<path d="M198 72.5C198 71.1193 199.119 70 200.5 70C201.881 70 203 71.1193 203 72.5V172H198V72.5Z" fill="#38C976"/>
<path d="M310 59.5C310 58.1193 311.119 57 312.5 57C313.881 57 315 58.1193 315 59.5V172H310V59.5Z" fill="#38C976"/>
<path d="M57.5 82.5C92.3333 74.1667 177.496 62 240 62C291 62 321.5 50 369 50L413 43H458" stroke="#FF5F00" stroke-width="2" stroke-linecap="round" stroke-linejoin="round" stroke-dasharray="4 8"/>
</svg>
