<svg width="20" height="25" viewBox="0 0 20 25" fill="none" xmlns="http://www.w3.org/2000/svg">
<path d="M9.95312 1.75C9.8125 0.765625 7.84375 0.765625 7.70312 1.79688V8.40625C7.65625 8.54688 7 8.54688 6.95312 8.40625C6.90625 7.23438 6.625 1.89062 6.57812 1.75C6.4375 0.765625 4.51562 0.765625 4.375 1.75C4.32812 1.89062 4.04688 7.23438 4 8.40625C3.95312 8.54688 3.29688 8.54688 3.25 8.40625V1.79688C3.10938 0.765625 1.14062 0.765625 1 1.75C0.953125 1.9375 0.25 6.15625 0.25 7.75C0.25 10.2344 1.51562 11.9688 3.4375 12.6719L2.875 23.8281C2.82812 24.4844 3.34375 25 4 25H7C7.60938 25 8.125 24.4844 8.125 23.8281L7.51562 12.6719C9.4375 11.9688 10.75 10.2344 10.75 7.75C10.75 6.15625 10 1.9375 9.95312 1.75ZM15.5781 15.1094L14.875 23.7812C14.7812 24.4375 15.3438 25 16 25H18.625C19.2344 25 19.75 24.5312 19.75 23.875V2.125C19.75 1.51562 19.2344 1 18.625 1C14.7344 1 8.21875 9.39062 15.5781 15.1094Z" fill="#FF4B3E"/>
</svg>
