<svg width="17" height="12" viewBox="0 0 17 12" fill="none" xmlns="http://www.w3.org/2000/svg">
<path fill-rule="evenodd" clip-rule="evenodd" d="M16 0.666672H15C14.4477 0.666672 14 1.11439 14 1.66667V10.3333C14 10.8856 14.4477 11.3333 15 11.3333H16C16.5523 11.3333 17 10.8856 17 10.3333V1.66667C17 1.11439 16.5523 0.666672 16 0.666672ZM10.3333 3.00001H11.3333C11.8856 3.00001 12.3333 3.44772 12.3333 4.00001V10.3333C12.3333 10.8856 11.8856 11.3333 11.3333 11.3333H10.3333C9.78105 11.3333 9.33333 10.8856 9.33333 10.3333V4.00001C9.33333 3.44772 9.78105 3.00001 10.3333 3.00001ZM6.66667 5.33334H5.66667C5.11438 5.33334 4.66667 5.78105 4.66667 6.33334V10.3333C4.66667 10.8856 5.11438 11.3333 5.66667 11.3333H6.66667C7.21895 11.3333 7.66667 10.8856 7.66667 10.3333V6.33334C7.66667 5.78105 7.21895 5.33334 6.66667 5.33334ZM2 7.33334H1C0.447715 7.33334 0 7.78105 0 8.33334V10.3333C0 10.8856 0.447715 11.3333 1 11.3333H2C2.55228 11.3333 3 10.8856 3 10.3333V8.33334C3 7.78105 2.55228 7.33334 2 7.33334Z" fill="black"/>
</svg>
