<svg width="16" height="12" viewBox="0 0 16 12" fill="none" xmlns="http://www.w3.org/2000/svg">
<path fill-rule="evenodd" clip-rule="evenodd" d="M7.66707 2.61515C9.8918 2.61525 12.0315 3.46936 13.6438 5.00095C13.7652 5.1192 13.9593 5.1177 14.0789 4.99761L15.2395 3.82728C15.3 3.76636 15.3338 3.68386 15.3333 3.59801C15.3328 3.51216 15.2981 3.43005 15.2368 3.36985C11.0049 -0.682384 4.32857 -0.682384 0.0966565 3.36985C0.0353544 3.43 0.000572274 3.51209 6.99859e-06 3.59794C-0.000558277 3.68379 0.0331399 3.76632 0.0936446 3.82728L1.25459 4.99761C1.37409 5.11789 1.56831 5.11938 1.68965 5.00095C3.30221 3.46926 5.44212 2.61514 7.66707 2.61515ZM7.66707 6.42273C8.88942 6.42266 10.0681 6.87661 10.9742 7.69639C11.0968 7.81273 11.2898 7.81021 11.4093 7.6907L12.5685 6.52037C12.6296 6.45899 12.6635 6.37571 12.6626 6.28917C12.6617 6.20264 12.6261 6.12007 12.5639 6.05993C9.8047 3.49552 5.53178 3.49552 2.77262 6.05993C2.7103 6.12007 2.67474 6.20268 2.67392 6.28924C2.6731 6.37581 2.70709 6.45907 2.76827 6.52037L3.92721 7.6907C4.04667 7.81021 4.23972 7.81273 4.36227 7.69639C5.26774 6.87715 6.44553 6.42324 7.66707 6.42273ZM9.98929 8.98457C9.99106 9.07135 9.95692 9.15501 9.89492 9.21581L7.88962 11.2378C7.83084 11.2972 7.75069 11.3307 7.66707 11.3307C7.58345 11.3307 7.5033 11.2972 7.44452 11.2378L5.43888 9.21581C5.37693 9.15497 5.34284 9.07128 5.34468 8.9845C5.34652 8.89772 5.38411 8.81554 5.44859 8.75737C6.72925 7.6751 8.60489 7.6751 9.88555 8.75737C9.94998 8.81559 9.98752 8.89779 9.98929 8.98457Z" fill="black"/>
</svg>
